<?xml version="1.0" encoding="UTF-8" standalone="no"?>
<!-- Created with Inkscape (http://www.inkscape.org/) -->

<svg
   width="21.392881mm"
   height="27.908777mm"
   viewBox="0 0 21.392881 27.908777"
   version="1.1"
   id="svg5"
   inkscape:version="1.1.2 (0a00cf5339, 2022-02-04, custom)"
   sodipodi:docname="favicon.svg"
   inkscape:export-filename="/home/xiaoxiae/Documents/Education/School/MatFyz/Studium/Skripty/school/courses/Bakalářská práce (BC)/přednáška/Climber Tools/Cled/Assets/UI/icon.png"
   inkscape:export-xdpi="650.65808"
   inkscape:export-ydpi="650.65808"
   xmlns:inkscape="http://www.inkscape.org/namespaces/inkscape"
   xmlns:sodipodi="http://sodipodi.sourceforge.net/DTD/sodipodi-0.dtd"
   xmlns="http://www.w3.org/2000/svg"
   xmlns:svg="http://www.w3.org/2000/svg">
  <sodipodi:namedview
     id="namedview7"
     pagecolor="#ffffff"
     bordercolor="#666666"
     borderopacity="1.0"
     inkscape:pageshadow="2"
     inkscape:pageopacity="0.0"
     inkscape:pagecheckerboard="0"
     inkscape:document-units="mm"
     showgrid="false"
     inkscape:zoom="6.2591293"
     inkscape:cx="81.800515"
     inkscape:cy="57.755637"
     inkscape:window-width="1920"
     inkscape:window-height="1080"
     inkscape:window-x="0"
     inkscape:window-y="0"
     inkscape:window-maximized="1"
     inkscape:current-layer="layer1"
     fit-margin-top="0"
     fit-margin-left="0"
     fit-margin-right="0"
     fit-margin-bottom="0" />
  <defs
     id="defs2" />
  <g
     inkscape:label="Layer 1"
     inkscape:groupmode="layer"
     id="layer1"
     transform="translate(-45.544082,-128.5649)">
    <path
       id="path1192-0-9-2-2-9-6-2-6"
       style="font-weight:bold;font-size:35.4627px;line-height:1.25;font-family:'Fira Sans';-inkscape-font-specification:'Fira Sans';letter-spacing:0px;fill:#ffffff;stroke-width:0.886571"
       d="m 57.373047,128.57422 c -3.890376,0.0422 -7.75381,2.12261 -9.751953,5.49219 -0.820668,1.43611 -1.489539,3.20137 -1.780108,4.9128 -0.493777,2.66123 -0.346323,5.62383 0.254742,8.34281 0.902164,3.99935 3.924205,7.63152 7.991416,8.63223 3.186803,0.89594 6.856753,0.70659 9.673201,-1.14926 1.628068,-1.17641 2.613956,-3.04536 3.081452,-4.95929 0.322172,-0.415 -0.246042,-0.78115 -0.627539,-0.55675 -1.206763,0.0309 -2.365399,0.31381 -3.501367,0.7091 -1.413909,0.41813 -2.943575,0.41487 -4.333985,-0.0859 -1.244263,-0.12548 -2.708219,-0.41889 -3.314453,-1.6582 -0.299336,-0.59223 -0.389591,-1.41322 -1.117187,-1.63868 -0.952529,-0.77715 -0.264973,-2.15106 -0.257149,-3.09537 0.186446,-1.06583 -0.09454,-2.30599 0.08056,-3.43367 0.310571,-1.1347 1.215826,-2.00282 1.502761,-3.14869 0.330227,-0.80781 0.63384,-0.9326 0.897127,-0.0224 0.182536,0.52268 -0.04595,1.19374 0.378263,1.67475 0.302575,0.63612 1.059107,0.56945 1.544922,0.91407 0.440759,0.64925 -0.159351,1.37574 -0.230043,2.05606 -0.517837,1.75676 -1.842566,3.35824 -1.627379,5.27206 0.343524,1.1996 1.752925,1.23469 2.736328,1.58399 0.573022,0.25076 1.175139,0.0941 1.614883,-0.31397 1.005931,-0.53355 1.932477,0.4781 2.840596,0.78869 0.597586,0.55248 0.973342,0.091 1.333418,-0.44585 0.428464,-0.46055 0.0262,-1.36893 0.795088,-1.49177 0.974077,-0.58178 0.921881,-2.22156 -0.151137,-2.67273 -0.651706,-0.39383 -1.379314,-0.63979 -2.055895,-0.98742 0.514908,-0.80095 0.784215,-2.03756 -0.117442,-2.68101 -0.312931,-0.37763 0.437479,-0.87785 0.506114,-1.33462 0.421678,-1.00633 0.907012,-2.00095 1.642578,-2.81445 0.64152,-1.1807 0.730727,-2.56689 0.960669,-3.86365 0.01777,-0.88515 -0.640073,-1.63578 -1.456838,-1.88484 -2.164249,-1.54484 -4.86947,-2.2399 -7.511643,-2.14018 z"
       sodipodi:nodetypes="cccccccccccccccccccccccccccccccccc" />
    <path
       d="m 57.773272,129.62746 c 1.53672,0 2.89612,0.2246 4.07821,0.67379 1.20573,0.44919 2.34054,1.12298 3.40442,2.02137 -1.41842,-0.13144 -2.57805,-0.0877 -3.51966,0.0498 -0.18466,0.027 -0.36094,0.0576 -0.52914,0.0912 -2.57071,0.51347 -3.25467,1.72747 -3.15013,1.4548 -1.65493,0 -2.96705,0.69743 -3.93636,2.0923 -0.53818,0.79382 1.21941,-0.73841 -1.15512,3.11652 -0.51807,0.84107 -0.26338,2.08466 -0.26338,3.33768 0,2.04875 -1.11113,4.26687 0.72756,5.01849 0.50794,0.20763 0.42254,0.9689 0.69094,1.36479 0.96931,1.37123 2.30508,2.05684 4.00729,2.05684 3.52715,1.26079 5.12781,-0.33942 7.4117,-0.481 -0.55351,2.06573 -2.04501,3.50715 -3.36895,4.09819 -1.3003,0.59105 -2.74245,0.88657 -4.32645,0.88657 -2.26961,0 -4.2437,-0.49648 -5.92227,-1.48943 -1.67857,-0.99296 -2.99069,-2.45875 -3.93636,-4.39738 -0.92203,-1.96226 -1.38305,-4.31463 -1.38305,-7.05708 0,-2.6715 0.47284,-4.97658 1.41851,-6.91521 0.96931,-1.93862 2.29325,-3.40442 3.97182,-4.39737 1.70221,-1.0166 3.62902,-1.5249 5.78042,-1.5249 z"
       style="font-weight:bold;font-size:35.4627px;line-height:1.25;font-family:'Fira Sans';-inkscape-font-specification:'Fira Sans';letter-spacing:0px;stroke-width:0.88657"
       id="path1192-0-9-2-2-9-6-2"
       sodipodi:nodetypes="sccssccsssccccsscsccss"
       inkscape:export-filename="/home/xiaoxiae/Downloads/path1192-0-9-2-2-9-6-2-6.png"
       inkscape:export-xdpi="503.36218"
       inkscape:export-ydpi="503.36218" />
    <path
       id="path6914-3-6-2-6"
       style="fill:#000000;fill-opacity:1;stroke-width:0.0501462"
       d="m 65.082052,131.9805 c -0.0942,-0.0453 -0.25174,0.0103 -0.22419,0.0977 0.013,0.0388 0.002,0.10677 -0.0214,0.15067 -0.0241,0.0439 -0.0488,0.28254 -0.0551,0.53026 -0.0103,0.40749 -0.0304,0.48926 -0.21065,0.85754 -0.31337,0.64047 -0.5026,1.15706 -0.55579,1.51715 -0.046,0.31105 -0.0562,0.33384 -0.162,0.36081 -0.16688,0.0426 -0.21218,-0.002 -0.16315,-0.1598 0.0613,-0.19758 -0.0392,-0.56459 -0.19971,-0.72494 -0.20497,-0.20552 -0.62017,-0.38795 -0.92433,-0.40612 -0.32855,-0.0196 -0.73505,0.0915 -0.96487,0.26381 -0.17619,0.13208 -0.21656,0.21912 -0.18067,0.38976 0.0229,0.11131 -0.12463,0.51371 -0.31228,0.84913 -0.0738,0.13185 -0.12911,0.26756 -0.12303,0.30157 0.006,0.0341 -0.007,0.12832 -0.0289,0.20954 -0.0472,0.17497 -0.008,0.3592 0.0843,0.4065 0.0394,0.0199 -0.0773,0.0824 -0.28402,0.15201 -0.19308,0.065 -0.39614,0.14794 -0.45137,0.18436 -0.0552,0.0364 -0.23607,0.0632 -0.40188,0.0597 -0.16583,-0.004 -0.41848,0.02 -0.56141,0.0523 -0.14293,0.0322 -0.3664,0.058 -0.49664,0.0572 l -0.23682,-0.001 -0.12684,-0.51164 c -0.20079,-0.80928 -0.10403,-1.91729 0.21893,-2.50693 0.22839,-0.41699 0.25427,-0.65919 0.0801,-0.74965 -0.16191,-0.0201 0.007,-0.0791 -0.80588,-0.0196 -0.01,0.0181 -0.0809,0.0298 -0.15772,0.0261 -0.16812,-0.008 -0.2801,0.14865 -0.15227,0.21309 0.0634,0.032 0.0694,0.10159 0.0237,0.27796 -0.0626,0.24433 -0.064,0.51513 -0.004,0.80925 0.0194,0.0943 -0.0112,0.40622 -0.0676,0.69312 -0.28632,1.45401 -0.37325,2.27249 -0.27023,2.54411 0.0764,0.20166 0.30033,0.33048 0.65085,0.37457 0.17533,0.022 0.46512,0.0769 0.64397,0.12186 0.17883,0.045 0.48155,0.0966 0.67274,0.11452 0.19115,0.018 0.34995,0.0426 0.35285,0.0548 0.003,0.0121 -0.0554,0.23048 -0.12981,0.48532 -0.0742,0.25481 -0.17519,0.73257 -0.22428,1.06163 -0.40231,1.71522 -0.45308,2.07313 -1.0018,3.18689 -0.49479,1.00271 -0.6843,1.47706 -0.947,2.36966 -0.15363,0.52199 -0.16922,0.8438 -0.0495,1.01857 0.1053,0.15349 0.38002,0.2927 0.67426,0.34147 0.35518,0.0588 0.96646,0.22974 1.14428,0.3198 0.0865,0.0438 0.24133,0.0967 0.34421,0.11759 0.16643,0.0338 0.20575,0.0182 0.35619,-0.14175 0.35903,-0.38182 0.39062,-0.40202 0.68398,-0.43503 0.66013,-0.0743 1.69848,0.0775 1.81483,0.26528 0.0266,0.0429 0.10659,0.0891 0.17791,0.10292 0.1734,0.0336 0.71509,0.30539 0.95027,0.47684 0.23549,0.17174 0.40184,0.19668 0.47085,0.0707 0.0785,-0.14342 -0.0715,-0.49935 -0.39062,-0.92599 -0.20334,-0.27191 -0.29496,-0.44656 -0.31567,-0.60195 -0.0886,-0.66474 -0.4951,-0.79855 -1.01151,-0.33307 -0.16538,0.14906 -0.24437,0.18229 -0.43147,0.18159 -0.40922,-0.002 -1.12873,-0.12489 -1.38971,-0.23825 -0.1402,-0.0609 -0.36824,-0.11589 -0.50672,-0.12226 -0.34319,-0.0158 -0.58683,-0.1403 -0.58694,-0.29998 -4e-4,-0.20358 0.34838,-0.68591 0.72921,-1.00919 l 0.33943,-0.28808 0.37648,0.1898 c 0.3396,0.1712 0.39432,0.18508 0.55827,0.14126 0.23461,-0.0627 0.59879,0.006 1.17492,0.22272 0.42682,0.16031 0.47753,0.19044 0.66821,0.39752 0.16811,0.18255 0.2617,0.24505 0.50484,0.33699 0.21415,0.081 0.37605,0.17914 0.573,0.34754 0.30127,0.25759 0.42703,0.30508 0.6827,0.25775 0.13132,-0.0243 0.19087,-0.0697 0.26209,-0.19967 0.20326,-0.37112 -0.11885,-0.68374 -1.1049,-1.07249 -0.59434,-0.23427 -1.25743,-0.61502 -1.56331,-0.89771 -0.0875,-0.0808 -0.39495,-0.26767 -0.68333,-0.41495 -0.42469,-0.21707 -0.52215,-0.28289 -0.51297,-0.34667 0.007,-0.0434 0.0129,-0.10932 0.0152,-0.14674 0.002,-0.0491 0.062,-0.0387 0.21421,0.0381 0.21948,0.11065 0.5022,0.12623 0.61636,0.034 0.0364,-0.0294 0.19936,-0.27583 0.36221,-0.54754 0.34219,-0.57108 0.36327,-0.68607 0.17196,-0.94031 -0.11711,-0.1556 -0.14758,-0.17245 -0.42619,-0.23594 -0.34291,-0.0781 -0.48862,-0.17205 -0.53304,-0.34357 -0.0276,-0.10566 0.0481,-0.26679 0.63885,-1.36417 0.52679,-0.97852 0.6991,-1.33711 0.80693,-1.67864 0.15691,-0.49684 0.35816,-0.83104 0.90635,-1.50498 0.1919,-0.23592 0.40532,-0.53196 0.47424,-0.65779 0.19198,-0.3505 0.35086,-0.90209 0.40147,-1.3937 0.0458,-0.44414 0.21659,-1.201 0.30938,-1.37043 0.1315,-0.24009 0.0506,-0.80986 -0.14429,-1.01641 -0.0108,-0.0106 -0.0225,-0.0192 -0.0359,-0.0257 z"
       sodipodi:nodetypes="sssscssssssssssssssscccsccsssssssssssccssscssssssssssssssccsssssssssscssssccsscssssssss"
       inkscape:transform-center-x="4.0189119"
       inkscape:transform-center-y="7.817501"
       inkscape:export-filename="/home/xiaoxiae/Downloads/path1192-0-9-2-2-9-6-2-6.png"
       inkscape:export-xdpi="503.36218"
       inkscape:export-ydpi="503.36218" />
  </g>
</svg>
